<svg xmlns="http://www.w3.org/2000/svg" width="351" height="558" viewBox="0 0 351 558">
<g>
<path d="M 228.57 552.43 C227.63,551.49 227.00,549.14 227.00,546.58 C227.00,541.69 225.24,539.59 220.24,538.53 C216.97,537.83 215.00,535.56 215.00,532.48 C215.00,531.56 217.30,528.60 220.11,525.89 L 225.23 520.96 L 224.51 515.23 C223.70,508.72 223.41,508.00 221.55,508.00 C218.55,508.00 218.11,501.55 221.00,500.00 C222.58,499.16 223.00,497.91 223.00,494.07 C223.00,489.74 222.73,489.15 220.53,488.60 C219.17,488.26 217.57,487.06 216.96,485.93 C216.03,484.18 216.38,483.42 219.44,480.62 C222.82,477.52 223.00,477.03 223.00,470.88 C223.00,463.74 224.00,462.00 228.09,462.00 C231.29,462.00 232.00,463.46 232.00,470.02 C232.00,472.70 232.39,475.13 232.88,475.42 C233.36,475.72 237.84,475.07 242.83,473.98 C253.64,471.63 267.22,471.11 269.47,472.97 C271.32,474.51 271.48,478.38 269.75,479.74 C269.06,480.28 264.00,481.01 258.50,481.35 C253.00,481.69 246.02,482.61 243.00,483.38 C239.98,484.16 236.26,485.07 234.75,485.42 C232.21,485.99 232.00,486.41 232.00,490.90 C232.00,493.82 232.55,496.21 233.39,496.91 C234.38,497.73 238.64,497.87 248.19,497.39 C263.72,496.61 268.61,497.58 269.63,501.65 C271.05,507.31 267.10,510.66 246.25,521.47 C233.82,527.92 231.61,530.69 239.75,529.65 C253.10,527.94 276.02,526.94 277.96,527.98 C280.16,529.15 280.84,534.36 278.95,535.53 C278.37,535.89 271.74,536.57 264.20,537.04 C256.67,537.52 247.24,538.19 243.25,538.54 L 236.00 539.17 L 236.00 545.01 C236.00,550.93 234.46,554.00 231.50,554.00 C230.75,554.00 229.44,553.29 228.57,552.43 ZM 243.51 512.41 C248.17,509.89 252.26,507.39 252.59,506.85 C252.97,506.24 250.86,506.10 246.85,506.49 C235.78,507.55 234.14,507.97 233.52,509.95 C232.95,511.74 233.77,517.00 234.62,517.00 C234.84,517.00 238.84,514.94 243.51,512.41 ZM 123.57 546.43 C120.20,543.06 122.43,539.45 130.82,534.70 L 135.14 532.26 L 135.49 507.10 L 135.84 481.94 L 132.64 482.54 C128.71,483.28 125.43,480.37 126.48,477.08 C127.08,475.16 139.56,467.00 141.88,467.00 C146.00,467.00 153.16,469.44 154.08,471.15 C155.65,474.09 152.81,478.00 149.12,478.00 C146.44,478.00 146.24,478.30 145.65,483.25 C145.30,486.14 145.01,497.84 145.01,509.25 L 145.00 530.00 L 149.43 530.00 C154.12,530.00 157.00,531.85 157.00,534.87 C157.00,537.52 154.94,539.00 151.24,539.00 C148.76,539.00 147.14,539.81 145.03,542.13 C142.53,544.87 141.74,545.17 138.66,544.60 C136.04,544.11 134.31,544.45 131.83,545.97 C127.83,548.40 125.67,548.53 123.57,546.43 ZM 186.05 545.97 C181.40,544.95 173.69,543.81 168.92,543.44 C158.86,542.65 157.75,542.17 157.75,538.57 C157.75,535.12 158.22,534.74 163.27,534.06 L 167.50 533.50 L 168.12 522.50 C168.47,516.45 168.80,506.21 168.87,499.75 L 169.00 488.00 L 166.04 488.00 C162.80,488.00 160.58,485.27 161.61,482.58 C162.19,481.07 173.20,472.57 177.69,470.16 C181.29,468.24 183.47,468.79 190.13,473.33 C193.64,475.72 199.56,479.37 203.30,481.45 C213.38,487.05 213.77,487.96 211.14,499.80 C209.96,505.13 207.91,516.87 206.59,525.88 C203.21,548.97 202.57,549.60 186.05,545.97 ZM 198.91 522.01 C200.66,513.22 202.19,502.77 202.30,498.79 L 202.50 491.56 L 194.57 487.28 C190.20,484.93 185.57,482.01 184.27,480.79 C182.42,479.05 181.54,478.80 180.21,479.64 C178.70,480.59 178.42,483.79 177.80,507.08 C177.42,521.58 177.34,533.68 177.62,533.97 C178.28,534.66 190.87,537.74 193.61,537.89 C195.54,537.99 195.97,536.70 198.91,522.01 ZM 187.63 461.75 C187.30,460.51 187.02,457.43 187.01,454.90 C187.00,451.91 186.11,448.62 184.45,445.51 C180.86,438.75 178.87,429.16 179.21,420.25 C179.53,411.91 180.89,410.11 183.43,414.69 C184.93,417.39 184.99,417.13 184.93,408.00 C184.83,392.55 184.89,391.98 186.57,391.33 C187.58,390.95 189.58,392.13 192.14,394.62 L 196.14 398.50 L 195.45 392.38 C194.99,388.20 195.13,386.04 195.91,385.55 C197.46,384.60 201.94,389.57 207.64,398.57 C210.23,402.65 212.43,405.88 212.54,405.75 C212.65,405.61 212.28,402.53 211.72,398.89 C210.03,387.86 212.48,383.63 216.25,391.06 C219.71,397.88 217.25,414.39 210.16,431.77 C206.50,440.77 204.43,444.00 202.33,444.00 C200.91,444.00 200.79,442.78 201.31,433.75 C201.88,423.91 201.84,423.64 200.36,426.97 C199.51,428.89 198.37,434.51 197.84,439.47 C197.30,444.44 196.42,450.84 195.87,453.69 C194.31,461.91 189.05,467.05 187.63,461.75 ZM 153.73 425.89 C146.30,413.44 141.38,387.00 146.49,387.00 C148.25,387.00 149.73,391.37 150.47,398.76 C150.82,402.20 152.45,409.81 154.10,415.68 C157.81,428.91 157.68,432.52 153.73,425.89 ZM 232.53 408.25 L 233.13 396.50 L 230.96 398.99 C229.77,400.36 227.70,403.62 226.38,406.24 C223.29,412.34 221.57,412.47 222.24,406.55 C222.85,401.14 225.75,395.33 231.53,387.90 C237.48,380.27 241.00,373.37 241.00,369.35 C241.00,365.66 242.50,364.85 243.50,368.00 C243.85,369.10 244.52,370.00 244.99,370.00 C246.07,370.00 246.80,361.60 247.39,342.50 C247.87,327.00 249.19,320.51 252.23,318.61 C256.65,315.86 261.95,329.27 262.75,345.25 C263.04,351.16 263.03,356.00 262.71,356.00 C262.40,356.00 260.49,353.27 258.46,349.94 C256.44,346.61 254.64,344.03 254.47,344.20 C254.29,344.37 255.23,349.46 256.55,355.51 C259.51,369.08 259.51,368.85 256.64,369.95 C254.72,370.68 254.15,371.83 253.58,376.09 C252.68,382.92 251.03,386.72 246.16,393.19 C241.93,398.82 236.04,410.02 234.05,416.25 C233.39,418.31 232.64,420.00 232.38,420.00 C232.13,420.00 232.19,414.71 232.53,408.25 ZM 163.21 409.30 C159.29,397.39 158.41,391.98 159.93,389.13 C161.70,385.83 163.91,386.59 166.03,391.25 C167.54,394.57 167.95,397.68 167.91,405.50 C167.84,420.19 167.02,420.85 163.21,409.30 ZM 81.05 408.25 C80.48,406.19 80.01,403.75 80.01,402.82 C80.00,401.90 78.14,395.26 75.87,388.06 L 71.74 374.98 L 73.45 370.49 C74.39,368.02 75.48,366.00 75.86,366.00 C76.24,366.00 77.08,369.36 77.74,373.47 C78.39,377.57 80.53,384.81 82.49,389.55 C86.56,399.37 87.64,405.28 86.11,409.25 C84.60,413.16 82.29,412.70 81.05,408.25 ZM 291.58 397.75 C287.82,387.63 284.79,363.97 286.42,357.46 C287.10,354.74 287.16,354.72 288.89,356.59 C289.90,357.69 291.16,361.64 291.85,365.88 C292.50,369.94 294.40,376.66 296.06,380.82 C300.03,390.73 300.77,396.17 298.61,399.47 C296.06,403.37 293.43,402.72 291.58,397.75 ZM 132.37 385.50 C131.20,382.75 128.78,376.00 126.99,370.50 C125.20,365.00 123.52,360.13 123.26,359.67 C122.99,359.21 121.88,360.31 120.78,362.12 C118.92,365.19 118.68,365.29 117.46,363.61 C116.73,362.62 115.82,358.84 115.43,355.22 C114.71,348.50 115.42,332.76 116.51,330.98 C117.66,329.12 120.96,331.99 123.53,337.06 C127.99,345.86 135.47,378.76 134.81,386.69 L 134.50 390.50 L 132.37 385.50 ZM 88.50 385.25 C88.10,384.29 87.40,375.17 86.93,365.00 C86.46,354.83 85.58,340.56 84.97,333.29 C83.62,317.21 84.22,312.68 88.67,305.25 C92.01,299.69 100.61,290.00 102.21,290.00 C103.81,290.00 102.92,293.48 99.98,298.68 C94.53,308.34 93.94,312.57 93.05,348.50 C92.22,382.22 91.07,391.51 88.50,385.25 ZM 220.07 376.98 C216.44,369.31 214.38,367.00 211.17,367.00 C208.74,367.00 197.09,363.65 194.00,362.06 C192.03,361.05 190.52,356.70 191.37,354.48 C191.96,352.94 193.16,352.79 201.77,353.21 C215.83,353.90 222.08,357.77 226.60,368.59 C227.95,371.81 227.94,372.68 226.47,377.08 C225.58,379.77 224.43,382.24 223.91,382.55 C223.40,382.87 221.67,380.37 220.07,376.98 ZM 156.98 363.48 C155.95,362.24 156.06,361.59 157.61,359.88 C161.60,355.47 173.60,350.01 176.01,351.51 C177.33,352.32 174.93,356.78 171.34,360.19 C166.44,364.83 159.43,366.43 156.98,363.48 ZM 276.62 363.46 C275.32,360.05 276.09,351.04 278.48,341.95 C281.89,328.96 281.76,326.33 277.40,319.85 C272.87,313.13 271.00,309.53 271.00,307.55 C271.00,304.77 274.18,305.91 278.52,310.26 C285.87,317.61 287.74,329.70 284.46,348.62 C282.34,360.81 278.44,368.20 276.62,363.46 ZM 226.18 356.41 C224.93,355.54 220.99,350.38 217.42,344.96 C213.86,339.53 209.53,334.09 207.81,332.87 L 204.69 330.64 L 205.35 334.80 C205.93,338.42 205.67,339.34 203.26,342.01 C201.54,343.91 199.16,345.28 196.95,345.63 C193.83,346.13 193.27,345.88 192.20,343.55 C190.59,340.00 190.58,315.01 192.20,311.46 C193.67,308.23 196.37,308.44 206.00,312.53 C209.57,314.05 217.45,316.13 223.50,317.16 C229.55,318.19 235.24,319.27 236.14,319.55 C239.16,320.50 240.30,325.47 239.75,335.28 C239.20,345.02 236.92,352.08 233.06,355.94 C230.58,358.42 229.18,358.51 226.18,356.41 ZM 150.00 339.20 C150.00,338.75 151.32,336.31 152.93,333.77 C156.82,327.63 161.00,325.44 161.00,329.53 C161.00,331.31 153.05,340.00 151.42,340.00 C150.64,340.00 150.00,339.64 150.00,339.20 ZM 123.64 305.75 C121.41,302.17 120.86,298.23 122.01,293.96 C123.29,289.20 125.40,288.85 126.90,293.15 C128.68,298.26 128.03,308.00 125.91,308.00 C125.43,308.00 124.41,306.99 123.64,305.75 ZM 172.13 291.98 C169.83,290.31 166.11,287.11 163.87,284.87 C159.20,280.20 159.33,282.77 162.35,255.50 C163.20,247.80 164.39,232.50 164.99,221.50 C166.83,188.03 167.73,184.26 174.55,181.42 C178.14,179.91 185.75,179.54 187.61,180.77 C192.02,183.68 193.93,197.07 193.98,225.50 C194.03,248.83 195.26,259.17 199.45,271.25 L 202.82 280.99 L 194.74 286.56 C180.59,296.31 178.72,296.75 172.13,291.98 ZM 245.50 282.56 C241.65,280.69 232.47,277.09 225.11,274.57 C211.16,269.80 205.62,267.05 204.60,264.40 C203.46,261.44 203.97,255.95 205.43,255.39 C207.02,254.78 214.32,256.65 239.89,264.25 C256.72,269.26 257.32,269.52 258.64,272.68 C261.35,279.16 259.31,286.02 254.69,285.98 C253.49,285.97 249.35,284.43 245.50,282.56 ZM 98.75 276.29 C96.20,275.66 95.47,271.45 97.40,268.51 C100.32,264.06 107.92,261.46 128.19,257.97 C144.71,255.13 152.73,254.53 154.49,255.99 C156.54,257.69 156.40,262.34 154.25,264.22 C150.86,267.18 148.11,267.94 126.41,271.97 C98.78,277.11 100.80,276.79 98.75,276.29 ZM 253.50 263.07 C249.67,261.48 247.89,258.31 246.92,251.35 C245.85,243.64 242.66,233.25 240.50,230.40 C239.10,228.55 239.06,228.55 239.09,230.50 C239.10,231.60 239.70,237.90 240.41,244.50 C241.12,251.10 241.55,256.68 241.37,256.90 C240.88,257.48 210.20,249.54 205.82,247.70 C199.99,245.26 198.69,241.66 198.19,226.63 C197.76,214.02 200.26,187.58 201.97,186.52 C202.37,186.27 207.66,188.51 213.72,191.49 C222.48,195.80 226.39,198.47 232.72,204.42 C250.40,221.05 262.11,244.83 259.43,258.66 C258.46,263.67 257.21,264.61 253.50,263.07 ZM 101.00 253.97 C101.00,248.54 110.06,227.27 116.50,217.56 C126.17,202.99 141.37,191.30 156.82,186.54 L 159.15 185.82 L 158.77 212.66 C158.38,240.84 157.78,244.98 153.77,247.12 C152.67,247.71 147.43,248.58 142.13,249.04 C136.83,249.51 126.37,251.26 118.87,252.94 C102.53,256.61 101.00,256.70 101.00,253.97 ZM 268.09 253.61 C267.45,252.84 266.07,249.12 265.03,245.33 C263.98,241.55 260.84,233.14 258.06,226.64 C252.51,213.67 251.97,211.00 254.92,211.00 C259.00,211.00 270.27,227.76 273.99,239.37 C275.50,244.07 275.51,250.17 274.03,252.95 C272.76,255.31 269.78,255.64 268.09,253.61 ZM 87.46 249.93 C85.00,245.96 94.01,221.43 101.66,211.25 C103.95,208.21 107.26,206.99 108.37,208.79 C109.65,210.86 97.18,240.72 92.00,247.99 C89.74,251.17 88.54,251.68 87.46,249.93 ZM 70.50 238.46 C46.04,223.73 31.00,200.79 31.00,178.21 C31.00,170.47 34.17,158.34 38.13,150.91 C42.48,142.74 51.92,131.96 62.57,123.00 C76.95,110.90 87.70,100.11 92.11,93.33 C97.84,84.53 102.00,85.13 102.00,94.75 C102.00,104.51 96.80,115.58 84.05,133.00 C79.01,139.88 73.45,148.42 71.70,151.98 C68.74,157.96 68.50,159.22 68.50,168.48 C68.50,180.82 69.10,182.06 81.09,194.65 C85.96,199.76 90.24,205.11 90.60,206.53 C91.52,210.23 90.42,215.71 87.70,220.95 C85.46,225.28 85.14,225.50 81.17,225.41 C73.53,225.25 59.55,213.60 48.52,198.20 C40.51,187.01 38.68,187.03 43.88,198.27 C49.23,209.85 58.74,220.92 71.77,230.73 C79.19,236.32 81.08,238.54 80.28,240.75 C79.53,242.84 76.67,242.17 70.50,238.46 ZM 282.67 241.33 C280.72,239.39 282.38,237.05 287.48,234.56 C293.51,231.60 306.07,219.88 312.81,210.89 C317.72,204.36 322.24,193.91 321.81,190.13 C321.53,187.77 321.15,188.12 318.08,193.50 C310.74,206.38 296.19,221.77 287.26,226.11 C280.95,229.17 278.58,227.96 272.23,218.42 C269.33,214.06 267.08,210.00 267.23,209.38 C267.38,208.76 270.27,206.04 273.66,203.34 C285.64,193.76 292.89,182.26 293.75,171.48 C294.57,161.25 288.05,147.43 274.36,130.44 C266.40,120.56 262.00,112.14 261.23,105.36 C260.81,101.60 260.42,101.00 258.41,101.00 C257.12,101.00 255.60,100.13 255.04,99.07 C253.77,96.70 253.72,72.16 254.96,62.52 C255.86,55.53 255.42,54.06 252.39,54.02 C251.36,54.00 245.91,79.09 244.47,90.50 C243.31,99.68 242.20,102.00 238.96,102.00 C234.23,102.00 233.76,99.80 233.30,75.06 C232.84,50.70 233.31,47.82 237.85,47.17 C239.49,46.94 240.30,47.43 240.69,48.92 C241.56,52.26 242.69,51.33 243.31,46.76 C243.93,42.09 247.02,38.72 249.80,39.69 C250.73,40.02 252.57,41.39 253.87,42.73 C255.18,44.08 258.28,46.05 260.76,47.11 L 265.28 49.05 L 264.62 56.78 C262.76,78.25 262.68,83.98 264.19,85.76 C265.00,86.72 267.14,89.95 268.94,92.94 C273.84,101.08 281.06,108.81 295.41,121.27 C311.17,134.96 317.76,142.73 323.58,154.50 C330.13,167.77 331.62,179.71 328.53,194.27 C326.25,205.04 321.84,212.24 310.55,223.63 C297.12,237.16 285.73,244.40 282.67,241.33 ZM 205.04 108.55 C203.86,107.12 201.13,85.30 200.91,75.50 C200.65,63.75 199.59,65.03 194.67,83.03 C192.04,92.61 189.18,101.25 188.29,102.23 C184.22,106.73 177.41,101.86 169.82,89.01 C163.49,78.30 163.81,73.91 171.92,59.77 C177.44,50.15 182.40,43.44 185.47,41.43 C187.95,39.80 188.83,39.90 195.15,42.47 C196.55,43.03 197.21,41.40 199.44,31.87 C202.33,19.57 203.13,18.00 206.50,18.00 C210.50,18.00 211.35,20.27 210.62,29.03 C209.40,43.61 209.90,78.52 211.52,92.51 C213.23,107.25 212.77,110.00 208.59,110.00 C207.30,110.00 205.70,109.35 205.04,108.55 ZM 188.33 72.50 C190.91,63.15 193.01,54.73 193.00,53.79 C193.00,52.84 192.10,51.59 191.01,51.00 C189.25,50.06 188.60,50.59 185.46,55.50 C180.04,63.97 174.03,75.31 174.01,77.09 C173.99,79.44 182.00,91.42 182.89,90.38 C183.31,89.90 185.76,81.85 188.33,72.50 ZM 111.26 101.97 C108.14,100.72 105.52,96.04 101.97,85.40 C96.56,69.19 96.26,55.17 101.14,47.27 C103.63,43.24 115.31,33.69 123.40,29.05 C126.48,27.29 129.00,25.28 129.00,24.58 C129.00,22.33 132.70,19.77 134.93,20.48 C136.07,20.84 137.00,21.48 137.00,21.91 C137.00,22.33 140.88,28.68 145.62,36.01 C163.99,64.42 167.57,76.49 159.77,83.72 C156.35,86.89 140.00,94.76 127.77,99.13 C116.39,103.19 114.91,103.44 111.26,101.97 ZM 132.50 87.16 C155.94,77.39 156.24,77.13 153.50,68.66 C151.80,63.41 140.05,42.95 135.61,37.50 L 133.16 34.50 L 129.83 36.28 C128.00,37.27 122.90,40.64 118.50,43.78 C105.10,53.36 104.16,57.07 109.66,78.50 C112.50,89.56 114.18,93.00 116.78,93.00 C117.73,93.00 124.81,90.37 132.50,87.16 ZM 219.63 94.75 C217.67,91.62 216.93,78.87 217.84,63.63 C218.49,52.71 218.89,50.56 220.49,49.38 C222.82,47.68 223.17,47.67 225.40,49.30 C227.02,50.49 227.19,52.68 227.22,72.69 C227.25,84.83 226.95,95.27 226.57,95.88 C225.37,97.83 221.13,97.13 219.63,94.75 ZM 221.91 34.91 C220.22,33.22 219.94,32.11 220.49,29.19 C221.58,23.36 223.75,20.00 226.40,20.00 C230.49,20.00 231.54,22.39 230.22,28.69 C228.44,37.17 226.00,39.00 221.91,34.91 ZM 121.75 74.92 C120.79,74.36 120.00,73.05 120.00,72.00 C120.00,70.08 126.02,58.97 128.80,55.75 C130.85,53.38 134.68,53.53 136.02,56.04 C137.39,58.60 133.88,66.78 129.05,72.30 C125.62,76.20 124.59,76.57 121.75,74.92 Z" fill="rgba(0,0,0,1)"/>
</g>
</svg>