<svg xmlns="http://www.w3.org/2000/svg" width="192" height="192" viewBox="0 0 192 192">
<g>
<path d="M 0.00 96.00 L 0.00 0.00 L 96.00 0.00 L 192.00 0.00 L 192.00 96.00 L 192.00 192.00 L 96.00 192.00 L 0.00 192.00 L 0.00 96.00 ZM 101.07 146.63 C101.11,144.36 101.56,141.60 102.08,140.50 C102.79,139.00 102.89,139.41 102.48,142.17 C101.56,148.43 103.59,147.28 106.01,140.17 C107.51,135.78 108.08,132.45 107.64,130.70 C106.68,126.86 104.93,127.34 105.62,131.25 L 106.19 134.50 L 104.18 131.36 C101.30,126.88 99.78,126.17 100.53,129.67 C101.08,132.24 101.00,132.34 99.71,130.75 C97.29,127.78 96.75,128.76 97.23,135.25 C97.48,138.69 97.51,140.26 97.28,138.75 C97.06,137.24 96.39,136.00 95.80,136.00 C94.49,136.00 95.53,144.93 97.01,146.41 C97.55,146.95 98.00,148.72 98.00,150.32 C98.00,152.81 98.22,153.06 99.50,152.00 C100.36,151.28 101.03,149.00 101.07,146.63 ZM 87.40 137.34 C86.63,134.78 86.00,131.63 86.00,130.34 C86.00,129.05 85.51,128.00 84.91,128.00 C83.53,128.00 84.67,135.39 86.64,139.25 C88.72,143.30 88.99,142.61 87.40,137.34 ZM 117.02 129.48 C118.11,128.32 119.00,126.14 119.00,124.63 C119.00,122.98 119.42,122.14 120.04,122.52 C120.72,122.94 120.86,122.18 120.45,120.33 C120.10,118.78 119.61,116.60 119.37,115.50 C119.01,113.93 119.24,114.04 120.42,116.00 L 121.93 118.50 L 121.96 114.80 C122.00,111.03 120.28,106.00 118.95,106.00 C117.58,106.00 117.00,109.13 116.93,116.83 C116.88,122.04 116.58,123.86 116.00,122.50 C115.17,120.58 115.14,120.59 115.07,122.72 C115.03,123.93 113.65,126.47 112.00,128.35 C110.35,130.23 109.02,132.83 109.04,134.13 C109.08,136.46 109.11,136.45 110.57,133.75 C111.39,132.24 112.23,131.00 112.44,131.00 C112.64,131.00 112.62,132.91 112.39,135.25 L 111.97 139.50 L 113.50 135.54 C114.35,133.37 115.93,130.64 117.02,129.48 ZM 91.56 130.38 C91.23,129.07 90.52,128.00 89.98,128.00 C88.64,128.00 88.75,131.02 90.25,135.10 L 91.49 138.50 L 91.82 135.63 C92.01,134.05 91.89,131.69 91.56,130.38 ZM 65.99 133.75 C65.99,132.51 65.32,130.21 64.49,128.64 C63.67,127.06 62.99,124.59 62.97,123.14 C62.94,120.81 62.82,120.71 61.89,122.31 C61.11,123.65 61.25,125.17 62.42,128.08 C63.29,130.26 64.00,132.93 64.00,134.02 C64.00,135.11 64.45,136.00 65.00,136.00 C65.55,136.00 66.00,134.99 65.99,133.75 ZM 133.67 131.41 C134.01,130.53 133.54,128.27 132.64,126.38 C131.74,124.48 131.00,121.82 131.00,120.47 C131.00,119.11 130.50,118.00 129.90,118.00 C128.80,118.00 129.06,122.61 130.55,129.75 C131.28,133.24 132.68,133.99 133.67,131.41 ZM 80.14 120.50 C78.69,113.33 77.24,110.00 75.57,110.00 C75.26,110.00 75.00,112.47 75.00,115.50 C75.00,118.53 75.45,121.00 76.00,121.00 C76.55,121.00 77.03,120.21 77.07,119.25 C77.10,118.29 77.73,119.42 78.47,121.77 C81.67,132.02 82.36,131.49 80.14,120.50 ZM 68.00 115.75 C68.01,105.18 68.29,103.04 70.05,100.15 C72.75,95.72 70.28,96.51 67.15,101.08 C65.11,104.05 64.88,105.27 65.40,110.40 C65.73,113.64 66.00,118.93 66.00,122.15 C66.00,125.38 66.45,128.00 67.00,128.00 C67.61,128.00 68.00,123.25 68.00,115.75 ZM 109.32 120.21 C107.78,118.14 106.30,117.43 103.06,117.19 C99.43,116.92 98.88,117.13 99.18,118.69 C99.37,119.68 100.20,120.51 101.02,120.53 C101.83,120.54 103.06,120.91 103.75,121.34 C104.44,121.77 105.40,121.87 105.88,121.57 C106.37,121.27 107.35,122.44 108.07,124.17 C109.34,127.23 109.41,127.26 110.36,125.13 C111.12,123.42 110.88,122.32 109.32,120.21 ZM 93.35 119.17 C94.26,118.16 94.75,117.08 94.44,116.78 C93.68,116.01 88.00,118.92 88.00,120.07 C88.00,121.69 91.62,121.07 93.35,119.17 ZM 128.50 117.75 C130.00,111.00 129.56,106.12 127.25,103.81 C124.18,100.74 123.36,102.21 126.08,105.89 C128.11,108.64 128.22,109.33 127.17,112.84 C125.78,117.47 125.66,121.00 126.89,121.00 C127.37,121.00 128.10,119.54 128.50,117.75 ZM 113.82 116.04 C114.54,114.41 114.99,111.60 114.82,109.79 C114.52,106.70 114.23,106.47 110.00,105.95 C107.53,105.65 104.52,104.87 103.32,104.20 C99.54,102.12 99.00,102.72 99.00,109.00 C99.00,113.14 99.39,115.00 100.25,114.98 C102.51,114.96 104.30,113.23 103.70,111.65 C102.52,108.59 105.51,111.05 107.78,115.02 C110.50,119.77 112.06,120.03 113.82,116.04 ZM 89.50 109.17 C89.14,108.80 88.20,109.38 87.42,110.44 C85.29,113.35 85.71,114.29 88.08,111.92 C89.23,110.77 89.87,109.53 89.50,109.17 ZM 79.00 100.00 C79.00,98.35 78.55,97.00 78.00,97.00 C76.89,97.00 76.62,101.29 77.67,102.33 C78.80,103.46 79.00,103.11 79.00,100.00 ZM 99.29 96.75 C101.06,95.52 102.62,94.46 102.76,94.41 C102.91,94.35 102.35,92.68 101.51,90.69 C100.46,88.17 100.00,83.58 100.00,75.65 C100.00,62.79 99.14,60.86 94.19,62.60 C91.52,63.53 91.49,63.64 90.88,75.52 C90.54,82.11 89.92,89.01 89.49,90.85 C88.80,93.79 89.06,94.48 91.61,96.56 C95.20,99.50 95.36,99.50 99.29,96.75 ZM 121.00 93.47 C121.00,92.08 120.44,90.76 119.75,90.55 C111.28,87.93 104.49,86.00 103.76,86.00 C103.27,86.00 103.00,86.95 103.18,88.12 C103.42,89.72 104.85,90.65 109.02,91.94 C112.05,92.87 115.42,94.16 116.52,94.79 C119.64,96.60 121.00,96.20 121.00,93.47 ZM 81.25 90.94 C86.90,89.91 88.00,89.38 88.00,87.72 C88.00,85.95 87.52,85.79 83.75,86.32 C72.88,87.82 69.00,89.10 69.00,91.20 C69.00,92.87 69.48,93.14 71.75,92.70 C73.26,92.42 77.54,91.62 81.25,90.94 ZM 121.00 85.73 C121.00,79.10 113.72,69.13 106.52,65.89 L 102.50 64.09 L 101.67 69.77 C101.22,72.90 101.11,77.27 101.45,79.48 C102.05,83.49 102.07,83.50 108.65,85.14 L 115.25 86.78 L 114.72 81.64 C114.20,76.67 114.23,76.60 115.55,79.50 C116.30,81.15 116.93,83.70 116.95,85.17 C117.00,87.55 117.99,88.68 120.25,88.92 C120.66,88.96 121.00,87.53 121.00,85.73 ZM 84.61 84.00 C88.61,84.00 89.00,82.97 89.00,72.44 L 89.00 64.05 L 86.37 65.05 C81.96,66.73 78.02,70.01 75.36,74.22 C72.65,78.51 69.87,85.54 70.59,86.26 C70.83,86.50 73.37,86.09 76.23,85.35 C79.10,84.61 82.86,84.00 84.61,84.00 ZM 126.00 83.43 C126.00,80.22 121.29,72.00 119.45,72.00 C118.44,72.00 118.72,73.36 120.54,77.25 C121.88,80.14 122.98,83.29 122.99,84.25 C123.00,85.21 123.68,86.00 124.50,86.00 C125.44,86.00 126.00,85.05 126.00,83.43 ZM 70.28 78.75 C73.27,71.88 73.47,71.00 72.02,71.00 C70.70,71.00 66.69,78.82 66.24,82.25 C65.65,86.86 67.41,85.33 70.28,78.75 ZM 64.00 81.13 C64.00,80.65 62.42,79.19 60.48,77.88 C56.65,75.29 52.61,69.94 51.49,66.00 C51.03,64.36 51.88,65.12 53.96,68.21 C56.90,72.58 62.34,77.00 64.77,77.00 C65.34,77.00 66.30,75.58 66.90,73.85 C67.94,70.88 67.77,70.46 64.00,66.77 C60.60,63.43 60.00,62.23 60.01,58.67 C60.01,54.46 60.84,52.77 66.73,45.02 C70.21,40.43 71.90,34.50 70.21,32.81 C69.49,32.09 68.69,32.70 67.60,34.81 C66.74,36.48 63.36,39.94 60.09,42.51 C56.82,45.08 52.98,48.94 51.55,51.10 C45.33,60.50 48.01,71.65 58.28,79.09 C62.42,82.08 64.00,82.65 64.00,81.13 ZM 135.39 77.89 C141.29,72.70 143.26,68.88 143.36,62.53 C143.45,55.70 140.06,49.84 132.50,43.75 C129.20,41.10 125.52,37.30 124.33,35.31 L 122.15 31.70 L 121.48 35.23 C120.78,39.01 122.23,42.80 125.86,46.65 C128.79,49.75 132.00,56.10 132.00,58.78 C132.00,62.11 129.51,66.46 126.06,69.16 L 123.08 71.50 L 125.10 74.69 C126.66,77.15 127.57,77.72 129.05,77.18 C131.98,76.09 137.49,70.54 139.32,66.82 C141.29,62.82 141.55,64.75 139.65,69.28 C138.30,72.52 130.86,80.00 129.00,80.00 C128.45,80.00 128.00,80.45 128.00,81.00 C128.00,83.07 130.88,81.86 135.39,77.89 Z" fill="rgba(0,0,0,1)"/>
</g>
</svg>